# xmcd
# 
# Track frame offsets:
#     150
#     16133
#     35611
#     45696
#     55131
#     69648
#     82523
#     97581
#     110388
#     123610
#     138374
#     149545
#     164577
#     181324
#     185559
#     213212
#     236479
#     261213
#     275221
# 
# Disc length: 3818
# 
# Revision: 1
# Processed by: cddbd v1.5.2PL0 Copyright (c) Steve Scherf et al.
# Submitted via: BonkEnc v1.0.8
# 
DISCID=0d0ee813
DTITLE=Fleetwood Mac - Fleetwood Mac
DYEAR=1999
DGENRE=Blues
TTITLE0=My Heart Beats Like A Hammer
TTITLE1=Merry-Go-Round
TTITLE2=Long Grey Mare
TTITLE3=Hellhound On My Trail
TTITLE4=Shake Your Moneymaker
TTITLE5=Looking For Somebody
TTITLE6=No Place To Go
TTITLE7=My Baby's Good To Me
TTITLE8=I Loved Another Woman
TTITLE9=Cold Black Night
TTITLE10=The World Keep On Turning
TTITLE11=Got to Move
TTITLE12=My Heart Beat Like a Hammer (Take 1)
TTITLE13=Merry Go Round (Take 1)
TTITLE14=I Loved Another Woman (Take 1, Take 2, Take 3, Take 4)
TTITLE15=I Loved Another Woman (Take 5, Take 6)
TTITLE16=Cold Black Night
TTITLE17=You're So Evil
TTITLE18=I'm Coming Home
EXTD=
EXTT0=
EXTT1=
EXTT2=
EXTT3=
EXTT4=
EXTT5=
EXTT6=
EXTT7=
EXTT8=
EXTT9=
EXTT10=
EXTT11=
EXTT12=
EXTT13=
EXTT14=
EXTT15=
EXTT16=
EXTT17=
EXTT18=
PLAYORDER=
